<svg width="1600" height="1600" viewBox="0 0 1600 1600" fill="none" xmlns="http://www.w3.org/2000/svg">
  <defs>
    <linearGradient id="bgGradient" x1="180" y1="120" x2="1440" y2="1520" gradientUnits="userSpaceOnUse">
      <stop offset="0" stop-color="#0C1018"/>
      <stop offset="0.46" stop-color="#05070C"/>
      <stop offset="1" stop-color="#020306"/>
    </linearGradient>
    <radialGradient id="topGlow" cx="0" cy="0" r="1" gradientUnits="userSpaceOnUse" gradientTransform="translate(800 338) rotate(90) scale(520 680)">
      <stop offset="0" stop-color="#F1D4A0" stop-opacity="0.14"/>
      <stop offset="0.34" stop-color="#BF8F4E" stop-opacity="0.04"/>
      <stop offset="1" stop-color="#000000" stop-opacity="0"/>
    </radialGradient>
    <radialGradient id="lowerGlow" cx="0" cy="0" r="1" gradientUnits="userSpaceOnUse" gradientTransform="translate(800 1140) rotate(90) scale(620 840)">
      <stop offset="0" stop-color="#122235" stop-opacity="0.36"/>
      <stop offset="0.42" stop-color="#0A1320" stop-opacity="0.10"/>
      <stop offset="1" stop-color="#000000" stop-opacity="0"/>
    </radialGradient>
    <linearGradient id="goldLine" x1="286" y1="214" x2="1330" y2="1392" gradientUnits="userSpaceOnUse">
      <stop offset="0" stop-color="#F0D5A0"/>
      <stop offset="0.24" stop-color="#C69756"/>
      <stop offset="0.52" stop-color="#F2DBAE"/>
      <stop offset="0.76" stop-color="#A97738"/>
      <stop offset="1" stop-color="#E9C98F"/>
    </linearGradient>
    <filter id="softBlur" x="234" y="410" width="1140" height="890" filterUnits="userSpaceOnUse" color-interpolation-filters="sRGB">
      <feGaussianBlur stdDeviation="16"/>
    </filter>
    <filter id="noise" x="0" y="0" width="1600" height="1600" filterUnits="userSpaceOnUse" color-interpolation-filters="sRGB">
      <feTurbulence type="fractalNoise" baseFrequency="0.88" numOctaves="2" stitchTiles="stitch" seed="23"/>
      <feColorMatrix type="matrix" values="1 0 0 0 0
                                           0 1 0 0 0
                                           0 0 1 0 0
                                           0 0 0 0.14 0"/>
    </filter>
    <radialGradient id="vignette" cx="0" cy="0" r="1" gradientUnits="userSpaceOnUse" gradientTransform="translate(800 800) rotate(90) scale(920 920)">
      <stop offset="0.54" stop-color="#000000" stop-opacity="0"/>
      <stop offset="1" stop-color="#000000" stop-opacity="0.58"/>
    </radialGradient>
  </defs>

  <rect width="1600" height="1600" fill="url(#bgGradient)"/>
  <rect width="1600" height="1600" fill="url(#topGlow)"/>
  <rect width="1600" height="1600" fill="url(#lowerGlow)"/>
  <g opacity="0.16" filter="url(#noise)">
    <rect width="1600" height="1600" fill="#FFFFFF"/>
  </g>

  <rect x="92" y="92" width="1416" height="1416" rx="58" stroke="url(#goldLine)" stroke-width="2"/>
  <rect x="112" y="112" width="1376" height="1376" rx="44" stroke="rgba(255,255,255,0.06)" stroke-width="1"/>

  <text x="800" y="254" text-anchor="middle" fill="url(#goldLine)" font-family="Sora, Manrope, Inter, Arial, sans-serif" font-size="72" font-weight="700" letter-spacing="0.14em">EXPLORING</text>

  <g filter="url(#softBlur)" opacity="0.70">
    <circle cx="704" cy="790" r="112" fill="#CCA15E"/>
    <circle cx="944" cy="708" r="86" fill="#E8C88E"/>
  </g>

  <g opacity="0.46">
    <rect x="466" y="530" width="668" height="430" rx="44" stroke="rgba(233,201,143,0.18)" stroke-width="1.6"/>
    <rect x="508" y="572" width="584" height="346" rx="34" stroke="rgba(233,201,143,0.10)" stroke-width="1.2"/>
    <path d="M466 680H408" stroke="rgba(233,201,143,0.26)" stroke-width="1.8" stroke-linecap="round"/>
    <path d="M1134 680H1192" stroke="rgba(233,201,143,0.26)" stroke-width="1.8" stroke-linecap="round"/>
    <path d="M800 530V472" stroke="rgba(233,201,143,0.26)" stroke-width="1.8" stroke-linecap="round"/>
    <path d="M800 960V1018" stroke="rgba(233,201,143,0.26)" stroke-width="1.8" stroke-linecap="round"/>
  </g>

  <g opacity="0.28">
    <path d="M512 856C604 810 690 756 770 734C850 710 912 706 988 680" stroke="rgba(233,201,143,0.24)" stroke-width="2.2" stroke-linecap="round"/>
    <path d="M550 632C618 662 664 706 704 790" stroke="rgba(233,201,143,0.24)" stroke-width="1.8" stroke-linecap="round"/>
    <path d="M944 708C986 666 1016 628 1060 572" stroke="rgba(233,201,143,0.20)" stroke-width="1.8" stroke-linecap="round"/>
  </g>

  <g fill="#A5AFBB" opacity="0.52">
    <circle cx="564" cy="632" r="8"/>
    <circle cx="628" cy="876" r="8"/>
    <circle cx="730" cy="628" r="8"/>
    <circle cx="1028" cy="592" r="8"/>
    <circle cx="1108" cy="772" r="8"/>
    <circle cx="962" cy="934" r="8"/>
  </g>

  <g>
    <circle cx="704" cy="790" r="104" stroke="rgba(233,201,143,0.32)" stroke-width="2"/>
    <circle cx="704" cy="790" r="58" stroke="rgba(233,201,143,0.22)" stroke-width="1.4"/>
    <circle cx="944" cy="708" r="72" stroke="rgba(233,201,143,0.26)" stroke-width="1.8"/>
    <circle cx="944" cy="708" r="16" fill="url(#goldLine)"/>
    <circle cx="704" cy="790" r="14" fill="rgba(233,201,143,0.76)"/>
    <path d="M620 790C648 748 676 726 704 706" stroke="url(#goldLine)" stroke-width="4" stroke-linecap="round"/>
    <path d="M844 708C876 676 910 660 944 652" stroke="rgba(233,201,143,0.52)" stroke-width="3" stroke-linecap="round"/>
  </g>

  <g transform="translate(800 1252)">
    <rect x="-180" y="-34" width="360" height="68" rx="24" fill="rgba(8,11,17,0.40)" stroke="rgba(233,201,143,0.14)" stroke-width="1.2"/>
    <text x="0" y="12" text-anchor="middle" fill="#B1BAC5" font-family="Manrope, Inter, Arial, sans-serif" font-size="24" font-weight="800" letter-spacing="0.16em">UNDER SCAN</text>
  </g>

  <rect width="1600" height="1600" fill="url(#vignette)"/>
</svg>
