<svg width="1600" height="1600" viewBox="0 0 1600 1600" fill="none" xmlns="http://www.w3.org/2000/svg">
  <defs>
    <linearGradient id="bgGradient" x1="180" y1="120" x2="1440" y2="1520" gradientUnits="userSpaceOnUse">
      <stop offset="0" stop-color="#0B0F18"/>
      <stop offset="0.46" stop-color="#05070C"/>
      <stop offset="1" stop-color="#020306"/>
    </linearGradient>
    <radialGradient id="topGlow" cx="0" cy="0" r="1" gradientUnits="userSpaceOnUse" gradientTransform="translate(800 338) rotate(90) scale(500 680)">
      <stop offset="0" stop-color="#F1D4A0" stop-opacity="0.14"/>
      <stop offset="0.36" stop-color="#BF8F4E" stop-opacity="0.04"/>
      <stop offset="1" stop-color="#000000" stop-opacity="0"/>
    </radialGradient>
    <radialGradient id="lowerGlow" cx="0" cy="0" r="1" gradientUnits="userSpaceOnUse" gradientTransform="translate(800 1180) rotate(90) scale(620 860)">
      <stop offset="0" stop-color="#102032" stop-opacity="0.32"/>
      <stop offset="0.42" stop-color="#0A1320" stop-opacity="0.10"/>
      <stop offset="1" stop-color="#000000" stop-opacity="0"/>
    </radialGradient>
    <linearGradient id="goldLine" x1="286" y1="214" x2="1330" y2="1392" gradientUnits="userSpaceOnUse">
      <stop offset="0" stop-color="#F0D5A0"/>
      <stop offset="0.24" stop-color="#C69756"/>
      <stop offset="0.52" stop-color="#F2DBAE"/>
      <stop offset="0.76" stop-color="#A97738"/>
      <stop offset="1" stop-color="#E9C98F"/>
    </linearGradient>
    <filter id="softBlur" x="220" y="430" width="1160" height="930" filterUnits="userSpaceOnUse" color-interpolation-filters="sRGB">
      <feGaussianBlur stdDeviation="16"/>
    </filter>
    <filter id="noise" x="0" y="0" width="1600" height="1600" filterUnits="userSpaceOnUse" color-interpolation-filters="sRGB">
      <feTurbulence type="fractalNoise" baseFrequency="0.88" numOctaves="2" stitchTiles="stitch" seed="31"/>
      <feColorMatrix type="matrix" values="1 0 0 0 0
                                           0 1 0 0 0
                                           0 0 1 0 0
                                           0 0 0 0.14 0"/>
    </filter>
    <radialGradient id="vignette" cx="0" cy="0" r="1" gradientUnits="userSpaceOnUse" gradientTransform="translate(800 800) rotate(90) scale(920 920)">
      <stop offset="0.54" stop-color="#000000" stop-opacity="0"/>
      <stop offset="1" stop-color="#000000" stop-opacity="0.58"/>
    </radialGradient>
  </defs>

  <rect width="1600" height="1600" fill="url(#bgGradient)"/>
  <rect width="1600" height="1600" fill="url(#topGlow)"/>
  <rect width="1600" height="1600" fill="url(#lowerGlow)"/>
  <g opacity="0.16" filter="url(#noise)">
    <rect width="1600" height="1600" fill="#FFFFFF"/>
  </g>

  <rect x="92" y="92" width="1416" height="1416" rx="58" stroke="url(#goldLine)" stroke-width="2"/>
  <rect x="112" y="112" width="1376" height="1376" rx="44" stroke="rgba(255,255,255,0.06)" stroke-width="1"/>

  <text x="800" y="254" text-anchor="middle" fill="url(#goldLine)" font-family="Sora, Manrope, Inter, Arial, sans-serif" font-size="74" font-weight="700" letter-spacing="0.16em">HOLD</text>

  <g opacity="0.26">
    <path d="M352 716C468 694 566 692 666 722C780 756 872 828 1030 852" stroke="rgba(233,201,143,0.18)" stroke-width="2.4" stroke-linecap="round"/>
    <path d="M1028 522C968 616 952 724 982 844" stroke="rgba(233,201,143,0.14)" stroke-width="2" stroke-linecap="round"/>
  </g>

  <g filter="url(#softBlur)" opacity="0.60">
    <circle cx="1028" cy="522" r="88" fill="#D0A564"/>
    <circle cx="980" cy="844" r="68" fill="#826130"/>
  </g>

  <g>
    <circle cx="980" cy="844" r="16" fill="rgba(233,201,143,0.34)"/>
    <circle cx="1028" cy="522" r="92" stroke="rgba(233,201,143,0.22)" stroke-width="1.8" stroke-dasharray="10 14"/>
    <circle cx="1028" cy="522" r="44" stroke="rgba(233,201,143,0.18)" stroke-width="1.4"/>
    <circle cx="1028" cy="522" r="14" fill="rgba(233,201,143,0.72)"/>
    <path d="M1010 492V552" stroke="url(#goldLine)" stroke-width="10" stroke-linecap="round"/>
    <path d="M1046 492V552" stroke="url(#goldLine)" stroke-width="10" stroke-linecap="round"/>
  </g>

  <g fill="#A5AFBB" opacity="0.42">
    <circle cx="352" cy="716" r="8"/>
    <circle cx="468" cy="696" r="8"/>
    <circle cx="566" cy="700" r="8"/>
    <circle cx="666" cy="722" r="8"/>
    <circle cx="842" cy="806" r="8"/>
    <circle cx="1166" cy="900" r="8"/>
  </g>

  <g transform="translate(800 1238)">
    <rect x="-172" y="-34" width="344" height="68" rx="24" fill="rgba(8,11,17,0.40)" stroke="rgba(233,201,143,0.14)" stroke-width="1.2"/>
    <text x="0" y="12" text-anchor="middle" fill="#AEB7C2" font-family="Manrope, Inter, Arial, sans-serif" font-size="24" font-weight="800" letter-spacing="0.16em">STAY IN THE POOL</text>
  </g>

  <rect width="1600" height="1600" fill="url(#vignette)"/>
</svg>
